{
  "asset": {
    "extras": {
      "author": "lewisglasgow2005 (https://sketchfab.com/lewisglasgow2005)",
      "license": "CC-BY-4.0 (http://creativecommons.org/licenses/by/4.0/)",
      "source": "https://sketchfab.com/3d-models/minecraft-player-rigged-96285d24681446f0b6273b1a68f49bca",
      "title": "Minecraft Player Rigged"
    },
    "generator": "Sketchfab-14.64.0",
    "version": "2.0"
  },
  "buffers": [
    {
      "uri": "data:application/octet-stream;base64,",
      "byteLength": 11832
    }
  ],
  "bufferViews": [
    {
      "buffer": 0,
      "byteOffset": 0,
      "byteLength": 1512,
      "byteStride": 8,
      "target": 34962
    },
    {
      "buffer": 0,
      "byteOffset": 1512,
      "byteLength": 4536,
      "byteStride": 24,
      "target": 34962
    },
    {
      "buffer": 0,
      "byteOffset": 6048,
      "byteLength": 1512,
      "byteStride": 8,
      "target": 34962
    },
    {
      "buffer": 0,
      "byteOffset": 7560,
      "byteLength": 3024,
      "byteStride": 16,
      "target": 34962
    },
    {
      "buffer": 0,
      "byteOffset": 10584,
      "byteLength": 1248,
      "target": 34963
    }
  ],
  "accessors": [
    {
      "bufferView": 0,
      "byteOffset": 0,
      "componentType": 5123,
      "normalized": false,
      "count": 189,
      "min": [
        1,
        3,
        3,
        3
      ],
      "max": [
        6,
        3,
        3,
        3
      ],
      "type": "VEC4"
    },
    {
      "bufferView": 1,
      "byteOffset": 0,
      "componentType": 5126,
      "normalized": false,
      "count": 189,
      "min": [
        -1,
        -1,
        -1
      ],
      "max": [
        1,
        1,
        1
      ],
      "type": "VEC3"
    },
    {
      "bufferView": 1,
      "byteOffset": 12,
      "componentType": 5126,
      "normalized": false,
      "count": 189,
      "min": [
        -0.5588913559913635,
        -1.121760368347168,
        -0.31031814217567444
      ],
      "max": [
        0.5631835460662842,
        1.1256181001663208,
        0.2613873779773712
      ],
      "type": "VEC3"
    },
    {
      "bufferView": 2,
      "byteOffset": 0,
      "componentType": 5126,
      "normalized": false,
      "count": 189,
      "min": [
        0.0007629171013832092,
        -0.0005152862286195159
      ],
      "max": [
        0.8738536834716797,
        0.9993001818656921
      ],
      "type": "VEC2"
    },
    {
      "bufferView": 3,
      "byteOffset": 0,
      "componentType": 5126,
      "normalized": false,
      "count": 189,
      "min": [
        1,
        0,
        0,
        0
      ],
      "max": [
        1,
        0,
        0,
        0
      ],
      "type": "VEC4"
    },
    {
      "bufferView": 4,
      "byteOffset": 0,
      "componentType": 5125,
      "normalized": false,
      "count": 312,
      "min": [
        0
      ],
      "max": [
        188
      ],
      "type": "SCALAR"
    }
  ],
  "scene": 0,
  "scenes": [
    {
      "nodes": [
        13
      ],
      "name": "Sketchfab_Scene"
    }
  ],
  "nodes": [
    {
      "name": "head_2",
      "matrix": [
        0.9999940991401672,
        -0.0034035309217870235,
        -0.00001621634692128282,
        0,
        0.0034035316202789545,
        0.9999492168426514,
        0.009476039558649063,
        0,
        -0.000016036463421187364,
        -0.009476039558649063,
        0.9999549984931946,
        0,
        2.8673542706858512e-11,
        0.6257038116455078,
        2.787698960560192e-10,
        1
      ]
    },
    {
      "name": "arm.L_3",
      "matrix": [
        0.0028002567123621702,
        0.009466521441936493,
        -0.999951183795929,
        0,
        -0.0034035718999803066,
        -0.9999490976333618,
        -0.00947603303939104,
        0,
        -0.9999901056289673,
        0.0034299418330192566,
        -0.0027679395861923695,
        0,
        0.42318812012672424,
        0.4834142327308655,
        0.0057615735568106174,
        1
      ]
    },
    {
      "name": "leg.L_4",
      "matrix": [
        0.0028004252817481756,
        0.009466523304581642,
        -0.9999513030052185,
        0,
        -0.003403509734198451,
        -0.9999491572380066,
        -0.00947603490203619,
        0,
        -0.9999902844429016,
        0.003429881762713194,
        -0.0027681090869009495,
        0,
        0.13597914576530457,
        -0.2209654301404953,
        -0.0017110796179622412,
        1
      ]
    },
    {
      "name": "arm.R_5",
      "matrix": [
        -0.0028001333121210337,
        -0.009466525167226791,
        0.9999513030052185,
        0,
        -0.0034035753924399614,
        -0.9999496936798096,
        -0.009476040489971638,
        0,
        0.9999902844429016,
        -0.003429942298680544,
        0.00276772677898407,
        0,
        -0.4198874831199646,
        0.4863058626651764,
        0.003427995601668954,
        1
      ]
    },
    {
      "name": "leg.R_6",
      "matrix": [
        -0.0027999638114124537,
        -0.009466523304581642,
        0.999951183795929,
        0,
        -0.0034035497810691595,
        -0.9999490976333618,
        -0.009476033970713615,
        0,
        0.9999901056289673,
        -0.0034299164544790983,
        0.0027675579767674208,
        0,
        -0.13748018443584442,
        -0.22002746164798737,
        -0.002467995509505272,
        1
      ]
    },
    {
      "name": "body_7",
      "children": [
        0,
        1,
        2,
        3,
        4
      ],
      "matrix": [
        0.9999902248382568,
        0.0034035316202789545,
        -0.0028002685867249966,
        0,
        -0.003429901087656617,
        0.9999492764472961,
        -0.009466510266065598,
        0,
        0.0027679072227329016,
        0.009476023726165295,
        0.9999512434005737,
        0,
        5.110950204723075e-11,
        -0.20272773504257202,
        1.4106220358467425e-10,
        1
      ]
    },
    {
      "name": "GLTF_created_0_rootJoint",
      "children": [
        5
      ]
    },
    {
      "name": "Object_7",
      "mesh": 0
    },
    {
      "name": "arm.L_8"
    },
    {
      "name": "GLTF_created_0",
      "children": [
        6,
        7,
        8
      ]
    },
    {
      "name": "Armature_9",
      "children": [
        9
      ],
      "matrix": [
        1,
        0,
        0,
        0,
        0,
        1,
        0,
        0,
        0,
        0,
        1,
        0,
        0.002146102488040924,
        0.13896328210830688,
        -0.01854214072227478,
        1
      ]
    },
    {
      "name": "GLTF_SceneRootNode",
      "children": [
        10
      ],
      "matrix": [
        1,
        0,
        0,
        0,
        0,
        3.422854177870249e-8,
        0.9999999403953552,
        0,
        0,
        -0.9999999403953552,
        3.422854177870249e-8,
        0,
        0,
        0,
        0,
        1
      ]
    },
    {
      "name": "root",
      "children": [
        11
      ]
    },
    {
      "name": "Sketchfab_model",
      "children": [
        12
      ],
      "matrix": [
        1,
        0,
        0,
        0,
        0,
        3.422854177870249e-8,
        -0.9999999403953552,
        0,
        0,
        0.9999999403953552,
        3.422854177870249e-8,
        0,
        0,
        0,
        0,
        1
      ]
    }
  ],
  "meshes": [
    {
      "primitives": [
        {
          "material": 0,
          "mode": 4,
          "attributes": {
            "JOINTS_0": 0,
            "NORMAL": 1,
            "POSITION": 2,
            "TEXCOORD_0": 3,
            "WEIGHTS_0": 4
          },
          "indices": 5
        }
      ]
    }
  ],
  "materials": [
    {
      "name": "skin",
      "pbrMetallicRoughness": {
        "baseColorFactor": [
          1,
          1,
          1,
          1
        ],
        "metallicFactor": 0,
        "roughnessFactor": 0.5
      },
      "emissiveFactor": [
        0,
        0,
        0
      ],
      "alphaMode": "OPAQUE",
      "doubleSided": true
    }
  ],
  "extensionsRequired": [
    "KHR_mesh_quantization"
  ],
  "extensionsUsed": [
    "KHR_mesh_quantization"
  ]
}